<svg width="24" height="24" viewBox="0 0 24 24" fill="none" xmlns="http://www.w3.org/2000/svg">
<path d="M8.99956 22L8.74893 18.4911C8.61418 16.6046 10.1083 15 11.9996 15C13.8909 15 15.3849 16.6046 15.2502 18.4911L14.9996 22" stroke="#2A353D" stroke-width="1.5"/>
<path d="M2.35164 13.2135C1.99862 10.9162 1.82211 9.76763 2.25641 8.74938C2.69071 7.73112 3.65427 7.03443 5.58138 5.64106L7.02123 4.6C9.41853 2.86667 10.6172 2 12.0002 2C13.3833 2 14.582 2.86667 16.9793 4.6L18.4191 5.64106C20.3462 7.03443 21.3098 7.73112 21.7441 8.74938C22.1784 9.76763 22.0019 10.9162 21.6489 13.2135L21.3478 15.1724C20.8474 18.4289 20.5972 20.0572 19.4292 21.0286C18.2613 22 16.5539 22 13.1391 22H10.8614C7.44658 22 5.73915 22 4.57124 21.0286C3.40333 20.0572 3.15311 18.4289 2.65267 15.1724L2.35164 13.2135Z" stroke="#2A353D" stroke-width="1.5" stroke-linejoin="round"/>
</svg>
